<svg width="109" height="32" viewBox="0 0 109 32" fill="none" xmlns="http://www.w3.org/2000/svg">
    <ellipse cx="16.4646" cy="16" rx="16" ry="16" fill="#1E164E"/>
    <path d="M19.3737 11C19.3737 9.34375 18.0707 8 16.4646 8C14.8586 8 13.5555 9.34375 13.5555 11V16C13.5555 17.6562 14.8586 19 16.4646 19C18.0707 19 19.3737 17.6562 19.3737 16V11Z"
          fill="#FFD60A"/>
    <path d="M12.5859 16V14.75C12.5859 14.3438 12.2525 14 11.8586 14C11.4343 14 11.1313 14.3438 11.1313 14.75V16C11.1313 18.8125 13.1313 21.0938 15.7374 21.4688V22.5H14.2828C13.8586 22.5 13.5555 22.8438 13.5555 23.25C13.5555 23.6875 13.8586 24 14.2828 24H18.6465C19.0404 24 19.3737 23.6875 19.3737 23.25C19.3737 22.8438 19.0404 22.5 18.6465 22.5H17.1919V21.4688C19.7677 21.0938 21.798 18.8125 21.798 16V14.75C21.798 14.3438 21.4646 14 21.0707 14C20.6465 14 20.3434 14.3438 20.3434 14.75V16C20.3434 18.2188 18.5859 20 16.4646 20C14.3131 20 12.5859 18.2188 12.5859 16Z"
          fill="#FFD60A"/>
    <path d="M26.3902 10.1909C26.2211 9.86385 25.8189 9.73577 25.4918 9.90485C25.1648 10.0739 25.0367 10.4761 25.2058 10.8032C26.0101 12.3591 26.4646 14.1255 26.4646 16C26.4646 17.8745 26.0101 19.6409 25.2058 21.1968C25.0367 21.5239 25.1648 21.9261 25.4918 22.0952C25.8189 22.2642 26.2211 22.1362 26.3902 21.8091C27.29 20.0684 27.798 18.0925 27.798 16C27.798 13.9075 27.29 11.9316 26.3902 10.1909Z"
          fill="#FFD60A"/>
    <path d="M23.8876 12.6943C24.2405 12.5894 24.6116 12.7905 24.7165 13.1435C25.2696 15.0049 25.2696 16.9951 24.7165 18.8565C24.6116 19.2095 24.2405 19.4106 23.8876 19.3057C23.5346 19.2009 23.3335 18.8297 23.4384 18.4768C23.9178 16.8632 23.9178 15.1368 23.4384 13.5232C23.3335 13.1703 23.5346 12.7991 23.8876 12.6943Z"
          fill="#FFD60A"/>
    <path d="M9.13131 13.3333C8.76312 13.3333 8.46464 13.6318 8.46464 14V18C8.46464 18.3682 8.76312 18.6667 9.13131 18.6667C9.4995 18.6667 9.79797 18.3682 9.79797 18V14C9.79797 13.6318 9.4995 13.3333 9.13131 13.3333Z"
          fill="#FFD60A"/>
    <path d="M6.46464 14.6667C6.09645 14.6667 5.79797 14.9651 5.79797 15.3333V16.6667C5.79797 17.0349 6.09645 17.3333 6.46464 17.3333C6.83283 17.3333 7.13131 17.0349 7.13131 16.6667V15.3333C7.13131 14.9651 6.83283 14.6667 6.46464 14.6667Z"
          fill="#FFD60A"/>
    <path d="M39.7228 15.8545C39.3815 15.8545 39.0508 15.7265 38.7308 15.4705C38.4322 15.2145 38.2828 14.8839 38.2828 14.4785C38.2828 14.3079 38.3148 14.1265 38.3788 13.9345L42.4108 3.40654C42.5602 3.02254 42.8055 2.73454 43.1468 2.54254C43.4882 2.35054 43.8402 2.25454 44.2028 2.25454C44.5868 2.25454 44.9495 2.35054 45.2908 2.54254C45.6535 2.73454 45.9095 3.02254 46.0588 3.40654L50.3788 13.8705C50.4215 13.9559 50.4428 14.0412 50.4428 14.1265C50.4428 14.2119 50.4428 14.2972 50.4428 14.3825C50.4428 14.8305 50.2935 15.1825 49.9948 15.4385C49.6962 15.6945 49.3655 15.8225 49.0028 15.8225C48.7468 15.8225 48.4908 15.7479 48.2348 15.5985C48.0002 15.4705 47.8295 15.2572 47.7228 14.9585L46.9184 12.7949C46.8362 12.5738 46.7747 12.2705 46.5388 12.2705H42.2188C42.0695 12.2705 41.9735 12.3345 41.9308 12.4625L41.1375 14.7009C41.0692 14.8937 40.9932 15.0863 40.8694 15.2491C40.7513 15.4044 40.6144 15.5315 40.4588 15.6305C40.2242 15.7799 39.9788 15.8545 39.7228 15.8545ZM43.3708 9.77454H45.2588C45.3868 9.77454 45.4828 9.73188 45.5468 9.64655C45.6322 9.53988 45.6535 9.41188 45.6108 9.26255L44.7788 6.99054C44.6508 6.64921 44.4908 6.47854 44.2988 6.47854C44.1068 6.47854 43.9468 6.65988 43.8188 7.02254L43.0188 9.29454C42.9762 9.42254 42.9868 9.53988 43.0508 9.64655C43.1148 9.73188 43.2215 9.77454 43.3708 9.77454Z"
          fill="#1E164E"/>
    <path d="M53.9678 15.8545C53.5625 15.8545 53.2212 15.7265 52.9438 15.4705C52.6665 15.2145 52.5278 14.8945 52.5278 14.5105V3.79054C52.5278 3.38521 52.6665 3.05454 52.9438 2.79854C53.2212 2.54254 53.5625 2.41454 53.9678 2.41454C54.3945 2.41454 54.7358 2.54254 54.9918 2.79854C55.2692 3.05454 55.4078 3.38521 55.4078 3.79054V14.5105C55.4078 14.9159 55.2692 15.2465 54.9918 15.5025C54.7358 15.7372 54.3945 15.8545 53.9678 15.8545Z"
          fill="#1E164E"/>
    <path d="M63.4216 15.8545C63.0589 15.8545 62.7069 15.7585 62.3656 15.5665C62.0243 15.3745 61.7789 15.0865 61.6296 14.7025L57.7576 4.33454C57.6936 4.14254 57.6616 3.96121 57.6616 3.79054C57.6616 3.38521 57.8109 3.05454 58.1096 2.79854C58.4083 2.54254 58.7496 2.41454 59.1336 2.41454C59.3896 2.41454 59.6456 2.48921 59.9016 2.63854C60.1789 2.76654 60.3603 2.97988 60.4456 3.27854L63.0376 10.9265C63.1656 11.2892 63.3256 11.4705 63.5176 11.4705C63.7096 11.4705 63.8696 11.2999 63.9976 10.9585L66.7496 3.31054C66.8563 3.01188 67.0269 2.79854 67.2616 2.67054C67.5176 2.52121 67.7736 2.44654 68.0296 2.44654C68.4989 2.44654 68.8616 2.60654 69.1176 2.92654C69.3736 3.24654 69.5016 3.58788 69.5016 3.95054C69.5016 4.01454 69.5016 4.08921 69.5016 4.17454C69.5016 4.23854 69.4803 4.31321 69.4376 4.39854L65.2776 14.7025C65.1283 15.0865 64.8723 15.3745 64.5096 15.5665C64.1683 15.7585 63.8056 15.8545 63.4216 15.8545Z"
          fill="#1E164E"/>
    <path d="M75.0301 15.8545C74.1128 15.8545 73.2701 15.6412 72.5021 15.2145C71.7341 14.7879 71.1154 14.2012 70.6461 13.4545C70.1981 12.6865 69.9741 11.8225 69.9741 10.8625C69.9741 9.88121 70.1981 9.02788 70.6461 8.30254C71.1154 7.55588 71.7341 6.97988 72.5021 6.57454C73.2701 6.14788 74.1128 5.93454 75.0301 5.93454C75.9688 5.93454 76.8114 6.14788 77.5581 6.57454C78.3261 6.97988 78.9341 7.55588 79.3821 8.30254C79.8301 9.02788 80.0541 9.88121 80.0541 10.8625C80.0541 11.8225 79.8301 12.6865 79.3821 13.4545C78.9341 14.2012 78.3261 14.7879 77.5581 15.2145C76.8114 15.6412 75.9688 15.8545 75.0301 15.8545ZM75.0301 13.2625C75.6914 13.2625 76.2248 13.0385 76.6301 12.5905C77.0568 12.1212 77.2701 11.5452 77.2701 10.8625C77.2701 10.1585 77.0568 9.59321 76.6301 9.16654C76.2248 8.73988 75.6914 8.52655 75.0301 8.52655C74.3901 8.52655 73.8461 8.73988 73.3981 9.16654C72.9714 9.59321 72.7581 10.1585 72.7581 10.8625C72.7581 11.5452 72.9714 12.1212 73.3981 12.5905C73.8461 13.0385 74.3901 13.2625 75.0301 13.2625Z"
          fill="#1E164E"/>
    <path d="M83.4611 15.8545C83.0558 15.8545 82.7144 15.7372 82.4371 15.5025C82.1598 15.2679 82.0211 14.9692 82.0211 14.6065V7.34254C82.0211 7.00121 82.1491 6.71321 82.4051 6.47854C82.6824 6.22254 83.0344 6.09454 83.4611 6.09454C83.8878 6.09454 84.2184 6.22254 84.4531 6.47854C84.7091 6.71321 84.8371 7.01188 84.8371 7.37454V14.5745C84.8371 14.9372 84.6984 15.2465 84.4211 15.5025C84.1651 15.7372 83.8451 15.8545 83.4611 15.8545ZM83.4611 4.49454C83.0131 4.49454 82.6291 4.35588 82.3091 4.07854C81.9891 3.77988 81.8291 3.40654 81.8291 2.95854C81.8291 2.55321 81.9891 2.20121 82.3091 1.90254C82.6291 1.60388 83.0131 1.45454 83.4611 1.45454C83.8878 1.45454 84.2504 1.60388 84.5491 1.90254C84.8691 2.20121 85.0291 2.55321 85.0291 2.95854C85.0291 3.40654 84.8691 3.77988 84.5491 4.07854C84.2504 4.35588 83.8878 4.49454 83.4611 4.49454Z"
          fill="#1E164E"/>
    <path d="M91.8746 15.8545C90.9786 15.8545 90.1359 15.6519 89.3466 15.2465C88.5786 14.8412 87.9599 14.2545 87.4906 13.4865C87.0213 12.7185 86.7866 11.8012 86.7866 10.7345C86.8079 9.26255 87.2879 8.09988 88.2266 7.24655C89.1652 6.37188 90.3813 5.93454 91.8746 5.93454C92.4506 5.93454 93.0159 5.99854 93.5706 6.12654C94.1253 6.25454 94.6053 6.48921 95.0106 6.83054C95.3306 7.08654 95.4906 7.41721 95.4906 7.82254C95.4906 8.16388 95.3626 8.47321 95.1066 8.75054C94.8719 9.02788 94.5733 9.16654 94.2106 9.16654C93.9759 9.16654 93.7626 9.10254 93.5706 8.97454C93.2506 8.80388 92.9626 8.68654 92.7066 8.62254C92.4719 8.55854 92.2053 8.52655 91.9066 8.52655C91.2026 8.52655 90.6266 8.72921 90.1786 9.13455C89.7306 9.53988 89.5066 10.0839 89.5066 10.7665C89.5066 11.5559 89.7519 12.1745 90.2426 12.6225C90.7332 13.0492 91.3092 13.2625 91.9706 13.2625C92.7173 13.2625 93.4212 12.9852 94.0826 12.4305C94.3386 12.2385 94.5839 12.1425 94.8186 12.1425C95.1599 12.1425 95.4479 12.2812 95.6826 12.5585C95.9386 12.8359 96.0666 13.1559 96.0666 13.5185C96.0666 13.6679 96.0346 13.8385 95.9706 14.0305C95.9066 14.2012 95.7892 14.3719 95.6186 14.5425C95.0426 15.0119 94.4239 15.3425 93.7626 15.5345C93.1226 15.7479 92.4933 15.8545 91.8746 15.8545Z"
          fill="#1E164E"/>
    <path d="M102.345 15.8545C100.894 15.8545 99.6675 15.4279 98.6648 14.5745C97.6835 13.6999 97.1928 12.5052 97.1928 10.9905C97.1928 9.41188 97.6728 8.17454 98.6328 7.27854C99.6142 6.38254 100.841 5.93454 102.313 5.93454C103.358 5.93454 104.222 6.12654 104.905 6.51054C105.588 6.89455 106.099 7.38521 106.441 7.98254C106.782 8.57988 106.953 9.20921 106.953 9.87055C106.953 10.9799 106.462 11.5345 105.481 11.5345H100.169C99.9982 11.5345 99.9128 11.6412 99.9128 11.8545C99.9128 12.3452 100.179 12.7399 100.713 13.0385C101.267 13.3159 101.886 13.4545 102.569 13.4545C102.995 13.4545 103.422 13.4012 103.849 13.2945C104.275 13.1665 104.649 12.9852 104.969 12.7505C105.182 12.6012 105.406 12.5265 105.641 12.5265C105.961 12.5265 106.228 12.6439 106.441 12.8785C106.675 13.1132 106.793 13.3905 106.793 13.7105C106.793 14.0945 106.59 14.4572 106.185 14.7985C105.801 15.1185 105.235 15.3745 104.489 15.5665C103.763 15.7585 103.049 15.8545 102.345 15.8545ZM104.009 9.67854C104.052 9.67854 104.105 9.66788 104.169 9.64655C104.254 9.62521 104.297 9.55054 104.297 9.42254C104.297 9.10254 104.094 8.81454 103.689 8.55854C103.305 8.28121 102.803 8.14255 102.185 8.14255C101.523 8.14255 100.979 8.29188 100.553 8.59055C100.147 8.86788 99.9448 9.15588 99.9448 9.45455C99.9448 9.60388 100.03 9.67854 100.201 9.67854H104.009Z"
          fill="#1E164E"/>
    <path d="M45.4392 28.0756C45.1813 28.2793 44.7876 28.4558 44.2581 28.6051C43.7287 28.7544 43.2128 28.8291 42.7105 28.8291C41.8688 28.8291 41.1153 28.6458 40.4501 28.2793C39.7849 27.8992 39.2622 27.3765 38.8821 26.7113C38.502 26.0461 38.3119 25.2926 38.3119 24.4509C38.3119 23.5685 38.4952 22.8082 38.8617 22.1702C39.2419 21.5321 39.7645 21.0434 40.4297 20.704C41.095 20.351 41.8688 20.1745 42.7512 20.1745C43.1177 20.1745 43.4843 20.2085 43.8508 20.2764C44.231 20.3442 44.5771 20.4528 44.8894 20.6022C45.0523 20.6836 45.1677 20.7922 45.2356 20.928C45.317 21.0502 45.3577 21.1859 45.3577 21.3353C45.3577 21.5525 45.2763 21.7561 45.1134 21.9462C44.964 22.1227 44.7604 22.2109 44.5025 22.2109C44.3939 22.2109 44.2785 22.1905 44.1563 22.1498C43.9119 22.0548 43.6472 21.9801 43.3621 21.9258C43.077 21.8579 42.8259 21.824 42.6087 21.824C41.9027 21.824 41.3122 22.0616 40.837 22.5367C40.3754 23.0119 40.1447 23.6499 40.1447 24.4509C40.1447 25.3062 40.3822 25.9782 40.8574 26.4669C41.3461 26.9556 41.9706 27.2 42.7308 27.2C43.0431 27.2 43.3757 27.1457 43.7287 27.0371C44.0816 26.9285 44.3667 26.7927 44.5839 26.6298C44.7333 26.5348 44.8962 26.4873 45.0727 26.4873C45.3034 26.4873 45.4867 26.5687 45.6225 26.7316C45.7718 26.881 45.8465 27.071 45.8465 27.3018C45.8465 27.6005 45.7107 27.8584 45.4392 28.0756Z"
          fill="#1E164E"/>
    <path d="M48.0058 28.8291C47.7479 28.8291 47.5307 28.7544 47.3542 28.6051C47.1777 28.4558 47.0894 28.2657 47.0894 28.0349V20.4596C47.0894 20.2424 47.1709 20.0592 47.3338 19.9098C47.5103 19.7469 47.7343 19.6655 48.0058 19.6655C48.2638 19.6655 48.4742 19.7469 48.6371 19.9098C48.8 20.0592 48.8815 20.2492 48.8815 20.48V28.0145C48.8815 28.2453 48.7932 28.4422 48.6167 28.6051C48.4538 28.7544 48.2502 28.8291 48.0058 28.8291Z"
          fill="#1E164E"/>
    <path d="M53.3395 28.8291C52.7557 28.8291 52.2195 28.6933 51.7308 28.4218C51.242 28.1503 50.8483 27.777 50.5497 27.3018C50.2646 26.8131 50.122 26.2633 50.122 25.6524C50.122 25.0279 50.2646 24.4848 50.5497 24.0233C50.8483 23.5481 51.242 23.1816 51.7308 22.9236C52.2195 22.6521 52.7557 22.5164 53.3395 22.5164C53.9368 22.5164 54.4731 22.6521 54.9482 22.9236C55.4369 23.1816 55.8239 23.5481 56.1089 24.0233C56.394 24.4848 56.5366 25.0279 56.5366 25.6524C56.5366 26.2633 56.394 26.8131 56.1089 27.3018C55.8239 27.777 55.4369 28.1503 54.9482 28.4218C54.4731 28.6933 53.9368 28.8291 53.3395 28.8291ZM53.3395 27.1796C53.7603 27.1796 54.0997 27.0371 54.3577 26.752C54.6292 26.4533 54.7649 26.0868 54.7649 25.6524C54.7649 25.2044 54.6292 24.8446 54.3577 24.5731C54.0997 24.3016 53.7603 24.1658 53.3395 24.1658C52.9322 24.1658 52.586 24.3016 52.301 24.5731C52.0294 24.8446 51.8937 25.2044 51.8937 25.6524C51.8937 26.0868 52.0294 26.4533 52.301 26.752C52.586 27.0371 52.9322 27.1796 53.3395 27.1796Z"
          fill="#1E164E"/>
    <path d="M62.8792 28.8291C62.6213 28.8291 62.4041 28.7544 62.2276 28.6051C62.0647 28.4558 61.9832 28.2657 61.9832 28.0349V25.5505C61.9832 25.0482 61.8678 24.6885 61.637 24.4713C61.4198 24.2541 61.1483 24.1455 60.8225 24.1455C60.4831 24.1455 60.198 24.2541 59.9672 24.4713C59.8457 24.5928 59.7497 24.7249 59.6791 24.8677C59.5679 25.0929 59.5599 25.3511 59.5599 25.6023V27.9535C59.5599 28.1842 59.4717 28.3811 59.2952 28.544C59.1323 28.6933 58.9287 28.768 58.6843 28.768C58.4264 28.768 58.2092 28.6933 58.0327 28.544C57.8562 28.3947 57.768 28.2046 57.768 27.9738V23.4124C57.768 23.1952 57.8494 23.0119 58.0123 22.8625C58.1888 22.6996 58.4128 22.6182 58.6843 22.6182C58.9015 22.6182 59.0848 22.6793 59.2341 22.8015C59.4159 22.9336 59.7407 22.9893 59.9259 22.862C60.2616 22.6316 60.6894 22.5164 61.2094 22.5164C61.9696 22.5164 62.5873 22.7404 63.0625 23.1884C63.5376 23.6364 63.7752 24.3491 63.7752 25.3265V28.0756C63.7752 28.2928 63.687 28.4761 63.5105 28.6255C63.3476 28.7612 63.1372 28.8291 62.8792 28.8291Z"
          fill="#1E164E"/>
    <path d="M66.2416 28.8291C65.9837 28.8291 65.7665 28.7544 65.59 28.6051C65.4135 28.4558 65.3252 28.2657 65.3252 28.0349V23.4124C65.3252 23.1952 65.4067 23.0119 65.5696 22.8625C65.7461 22.6996 65.9701 22.6182 66.2416 22.6182C66.5131 22.6182 66.7235 22.6996 66.8729 22.8625C67.0358 23.0119 67.1172 23.2019 67.1172 23.4327V28.0145C67.1172 28.2453 67.029 28.4422 66.8525 28.6051C66.6896 28.7544 66.486 28.8291 66.2416 28.8291ZM66.2416 21.6C65.9565 21.6 65.7122 21.5118 65.5085 21.3353C65.3049 21.1452 65.2031 20.9076 65.2031 20.6225C65.2031 20.3646 65.3049 20.1406 65.5085 19.9505C65.7122 19.7605 65.9565 19.6655 66.2416 19.6655C66.5131 19.6655 66.7439 19.7605 66.934 19.9505C67.1376 20.1406 67.2394 20.3646 67.2394 20.6225C67.2394 20.9076 67.1376 21.1452 66.934 21.3353C66.7439 21.5118 66.5131 21.6 66.2416 21.6Z"
          fill="#1E164E"/>
    <path d="M73.8764 28.8291C73.6184 28.8291 73.4012 28.7544 73.2247 28.6051C73.0618 28.4558 72.9804 28.2657 72.9804 28.0349V25.5505C72.9804 25.0482 72.865 24.6885 72.6342 24.4713C72.417 24.2541 72.1455 24.1455 71.8197 24.1455C71.4803 24.1455 71.1952 24.2541 70.9644 24.4713C70.8429 24.5928 70.7468 24.7249 70.6763 24.8677C70.5651 25.0929 70.5571 25.3511 70.5571 25.6023V27.9535C70.5571 28.1842 70.4689 28.3811 70.2924 28.544C70.1295 28.6933 69.9258 28.768 69.6815 28.768C69.4235 28.768 69.2063 28.6933 69.0298 28.544C68.8534 28.3947 68.7651 28.2046 68.7651 27.9738V23.4124C68.7651 23.1952 68.8466 23.0119 69.0095 22.8625C69.186 22.6996 69.41 22.6182 69.6815 22.6182C69.8987 22.6182 70.082 22.6793 70.2313 22.8015C70.413 22.9336 70.7378 22.9893 70.9231 22.862C71.2587 22.6316 71.6866 22.5164 72.2066 22.5164C72.9668 22.5164 73.5845 22.7404 74.0597 23.1884C74.5348 23.6364 74.7724 24.3491 74.7724 25.3265V28.0756C74.7724 28.2928 74.6841 28.4761 74.5077 28.6255C74.3447 28.7612 74.1343 28.8291 73.8764 28.8291Z"
          fill="#1E164E"/>
    <path d="M78.8679 31.5782C78.4877 31.5782 78.1212 31.5375 77.7682 31.456C77.4153 31.3881 77.0962 31.2795 76.8111 31.1302C76.4853 30.9537 76.3224 30.6822 76.3224 30.3156C76.3224 30.0848 76.4039 29.8812 76.5668 29.7047C76.7297 29.5418 76.9197 29.4604 77.137 29.4604C77.3134 29.4604 77.4696 29.5011 77.6053 29.5825C77.8225 29.7047 78.0465 29.793 78.2773 29.8473C78.5217 29.9016 78.7593 29.9287 78.99 29.9287C79.5059 29.9287 79.886 29.8133 80.1304 29.5825C80.3883 29.3518 80.5173 29.0463 80.5173 28.6662C80.5173 28.491 80.2987 28.3942 80.1507 28.488C79.7916 28.7154 79.3776 28.8291 78.9086 28.8291C77.999 28.8291 77.2659 28.544 76.7093 27.9738C76.1663 27.3901 75.8948 26.6162 75.8948 25.6524C75.8948 24.6885 76.1595 23.9282 76.6889 23.3716C77.232 22.8015 77.9515 22.5164 78.8475 22.5164C79.3155 22.5164 79.738 22.6459 80.115 22.905C80.3103 23.0393 80.6394 22.9515 80.8228 22.8015C80.9857 22.6793 81.1825 22.6182 81.4133 22.6182C81.6848 22.6182 81.902 22.6996 82.0649 22.8625C82.2279 23.0255 82.3093 23.2291 82.3093 23.4735V28.7069C82.3093 29.5758 82.0039 30.2681 81.3929 30.784C80.7956 31.3135 79.9539 31.5782 78.8679 31.5782ZM79.0511 27.1796C79.4584 27.1796 79.7842 27.0371 80.0286 26.752C80.2865 26.4533 80.4155 26.0868 80.4155 25.6524C80.4155 25.2044 80.2865 24.8446 80.0286 24.5731C79.7842 24.3016 79.4584 24.1658 79.0511 24.1658C78.6303 24.1658 78.2909 24.3016 78.0329 24.5731C77.7886 24.8446 77.6664 25.2044 77.6664 25.6524C77.6664 26.0868 77.7886 26.4533 78.0329 26.752C78.2909 27.0371 78.6303 27.1796 79.0511 27.1796Z"
          fill="#1E164E"/>
</svg>
