<svg width="27" height="28" viewBox="0 0 27 28" fill="none" xmlns="http://www.w3.org/2000/svg">
<path d="M13.5 0.666687C6.14002 0.666687 0.166687 6.64002 0.166687 14C0.166687 21.36 6.14002 27.3334 13.5 27.3334C20.86 27.3334 26.8334 21.36 26.8334 14C26.8334 6.64002 20.86 0.666687 13.5 0.666687ZM9.88669 19.72L5.10002 14.9334C4.58002 14.4134 4.58002 13.5734 5.10002 13.0534C5.62002 12.5334 6.46002 12.5334 6.98002 13.0534L10.8334 16.8934L20.0067 7.72002C20.5267 7.20002 21.3667 7.20002 21.8867 7.72002C22.4067 8.24002 22.4067 9.08002 21.8867 9.60002L11.7667 19.72C11.26 20.24 10.4067 20.24 9.88669 19.72Z" fill="white"/>
</svg>
